<svg xmlns="http://www.w3.org/2000/svg" id="Layer_1" data-name="Layer 1" viewBox="0 0 200 200"><defs><style>.cls-1{fill:#5a5a60}</style></defs><path d="m55.76 48 3.51 4a30.87 30.87 0 0 1 30.32-5.8l1.76-5A36.2 36.2 0 0 0 55.76 48ZM98.2 44.4 95.42 49a31.24 31.24 0 0 1 4 2.93l3.48-4a35.57 35.57 0 0 0-4.7-3.53ZM85.82 105.29A30.9 30.9 0 0 1 68 103.75l-2 5a36.18 36.18 0 0 0 13.4 2.55 36.86 36.86 0 0 0 7.52-.78ZM146.36 133.45l-7.65 7.65 3.78 3.78 3.87-3.87 14.74 14.75 3.78-3.78-18.52-18.53zM165.686 160.332l3.776-3.776 3.96 3.96-3.776 3.776zM33.07 140.14h5.34v5.82h-5.34zM33.07 172.77h5.34v5.82h-5.34zM77.08 151.37h5.34v5.82h-5.34zM153.66 103.32H159v5.82h-5.34zM159.72 56.95h5.34v5.82h-5.34zM177.43 81.5h5.34v5.82h-5.34z" class="cls-1"/><path d="M112.6 42.05a46.92 46.92 0 1 0 13.74 33.17 46.58 46.58 0 0 0-13.74-33.17Zm-3.78 62.57a41.56 41.56 0 0 1-58.79 0 41.81 41.81 0 0 1-4.23-5C45 99.27 42.87 95 42.87 95a41.58 41.58 0 1 1 77.56-26.71c.8 2.46.57 6.91.57 6.91a41.31 41.31 0 0 1-12.18 29.42Z" class="cls-1"/><path d="m120.43 68.31-14.57 14.24a9.49 9.49 0 0 0-12.58 3l-21.4-6.71v-.19a9.52 9.52 0 0 0-19 0 9.43 9.43 0 0 0 1.26 4.72L42.87 95s2.13 4.27 2.93 4.67l12.14-12.58a9.51 9.51 0 0 0 12.34-3.15l21.4 6.72v.19a9.52 9.52 0 1 0 17.92-4.48L121 75.22s.23-4.45-.57-6.91ZM62.36 82.84a4.18 4.18 0 1 1 4.18-4.18 4.19 4.19 0 0 1-4.18 4.18ZM101.2 95a4.18 4.18 0 1 1 4.18-4.17A4.18 4.18 0 0 1 101.2 95ZM166.13 10.37v5.34h8.08L158 31.53a9.52 9.52 0 0 0-13.1 12.84l-5.85 5.72a55.06 55.06 0 0 1 2 5.48l7.62-7.45a9.41 9.41 0 0 0 4.51 1.14 9.51 9.51 0 0 0 8.48-13.84l16.39-16v8.28h5.35V10.37Zm-12.91 33.55a4.18 4.18 0 1 1 4.18-4.18 4.19 4.19 0 0 1-4.18 4.18Z" class="cls-1"/><path d="m146.35 118.15-3.88 3.85-9.62-10.29a64.92 64.92 0 0 0 8.22-56.15 55.06 55.06 0 0 0-2-5.48A64.71 64.71 0 1 0 26.3 112.19s2.31 3.15 3.28 4.3q1.92 2.31 4.09 4.49a64.82 64.82 0 0 0 82.12 7.77l9.65 10.31-4 4 46.73 46.56 24.92-24.92Zm-108.9-1a59.37 59.37 0 1 1 84 0 59.43 59.43 0 0 1-84 .05Zm82.66 8.34a64.91 64.91 0 0 0 9.49-9.45l9.09 9.72-9.47 9.47Zm48 56.54-39.16-39 17.37-17.36 39.15 39Z" class="cls-1"/><path d="M29.58 116.49c-1-1.15-3.28-4.3-3.28-4.3l-4.49 4.66a9.55 9.55 0 1 0 3.84 3.71Zm-12.19 13a4.18 4.18 0 1 1 4.17-4.18 4.18 4.18 0 0 1-4.17 4.15Z" class="cls-1"/></svg>